<svg width="119" height="23" viewBox="0 0 119 23" fill="none" xmlns="http://www.w3.org/2000/svg">
<path d="M19.7 22H14.57L5.99 9.01V22H0.86V0.939999H5.99L14.57 13.99V0.939999H19.7V22ZM37.9186 13.36C37.9186 13.84 37.8886 14.34 37.8286 14.86H26.2186C26.2986 15.9 26.6286 16.7 27.2086 17.26C27.8086 17.8 28.5386 18.07 29.3986 18.07C30.6786 18.07 31.5686 17.53 32.0686 16.45H37.5286C37.2486 17.55 36.7386 18.54 35.9986 19.42C35.2786 20.3 34.3686 20.99 33.2686 21.49C32.1686 21.99 30.9386 22.24 29.5786 22.24C27.9386 22.24 26.4786 21.89 25.1986 21.19C23.9186 20.49 22.9186 19.49 22.1986 18.19C21.4786 16.89 21.1186 15.37 21.1186 13.63C21.1186 11.89 21.4686 10.37 22.1686 9.07C22.8886 7.77 23.8886 6.77 25.1686 6.07C26.4486 5.37 27.9186 5.02 29.5786 5.02C31.1986 5.02 32.6386 5.36 33.8986 6.04C35.1586 6.72 36.1386 7.69 36.8386 8.95C37.5586 10.21 37.9186 11.68 37.9186 13.36ZM32.6686 12.01C32.6686 11.13 32.3686 10.43 31.7686 9.91C31.1686 9.39 30.4186 9.13 29.5186 9.13C28.6586 9.13 27.9286 9.38 27.3286 9.88C26.7486 10.38 26.3886 11.09 26.2486 12.01H32.6686ZM49.2449 22L46.0349 17.35L43.3349 22H37.7849L43.3049 13.45L37.6349 5.26H43.3949L46.6049 9.88L49.3049 5.26H54.8549L49.2449 13.69L55.0049 22H49.2449ZM72.2316 5.26V22H67.1016V19.72C66.5816 20.46 65.8716 21.06 64.9716 21.52C64.0916 21.96 63.1116 22.18 62.0316 22.18C60.7516 22.18 59.6216 21.9 58.6416 21.34C57.6616 20.76 56.9016 19.93 56.3616 18.85C55.8216 17.77 55.5516 16.5 55.5516 15.04V5.26H60.6516V14.35C60.6516 15.47 60.9416 16.34 61.5216 16.96C62.1016 17.58 62.8816 17.89 63.8616 17.89C64.8616 17.89 65.6516 17.58 66.2316 16.96C66.8116 16.34 67.1016 15.47 67.1016 14.35V5.26H72.2316ZM81.4465 22.24C79.9865 22.24 78.6865 21.99 77.5465 21.49C76.4065 20.99 75.5065 20.31 74.8465 19.45C74.1865 18.57 73.8165 17.59 73.7365 16.51H78.8065C78.8665 17.09 79.1365 17.56 79.6165 17.92C80.0965 18.28 80.6865 18.46 81.3865 18.46C82.0265 18.46 82.5165 18.34 82.8565 18.1C83.2165 17.84 83.3965 17.51 83.3965 17.11C83.3965 16.63 83.1465 16.28 82.6465 16.06C82.1465 15.82 81.3365 15.56 80.2165 15.28C79.0165 15 78.0165 14.71 77.2165 14.41C76.4165 14.09 75.7265 13.6 75.1465 12.94C74.5665 12.26 74.2765 11.35 74.2765 10.21C74.2765 9.25 74.5365 8.38 75.0565 7.6C75.5965 6.8 76.3765 6.17 77.3965 5.71C78.4365 5.25 79.6665 5.02 81.0865 5.02C83.1865 5.02 84.8365 5.54 86.0365 6.58C87.2565 7.62 87.9565 9 88.1365 10.72H83.3965C83.3165 10.14 83.0565 9.68 82.6165 9.34C82.1965 9 81.6365 8.83 80.9365 8.83C80.3365 8.83 79.8765 8.95 79.5565 9.19C79.2365 9.41 79.0765 9.72 79.0765 10.12C79.0765 10.6 79.3265 10.96 79.8265 11.2C80.3465 11.44 81.1465 11.68 82.2265 11.92C83.4665 12.24 84.4765 12.56 85.2565 12.88C86.0365 13.18 86.7165 13.68 87.2965 14.38C87.8965 15.06 88.2065 15.98 88.2265 17.14C88.2265 18.12 87.9465 19 87.3865 19.78C86.8465 20.54 86.0565 21.14 85.0165 21.58C83.9965 22.02 82.8065 22.24 81.4465 22.24ZM107.912 11.2C109.132 11.46 110.112 12.07 110.852 13.03C111.592 13.97 111.962 15.05 111.962 16.27C111.962 18.03 111.342 19.43 110.102 20.47C108.882 21.49 107.172 22 104.972 22H95.1624V0.939999H104.642C106.782 0.939999 108.452 1.43 109.652 2.41C110.872 3.39 111.482 4.72 111.482 6.4C111.482 7.64 111.152 8.67 110.492 9.49C109.852 10.31 108.992 10.88 107.912 11.2ZM100.292 9.46H103.652C104.492 9.46 105.132 9.28 105.572 8.92C106.032 8.54 106.262 7.99 106.262 7.27C106.262 6.55 106.032 6 105.572 5.62C105.132 5.24 104.492 5.05 103.652 5.05H100.292V9.46ZM104.072 17.86C104.932 17.86 105.592 17.67 106.052 17.29C106.532 16.89 106.772 16.32 106.772 15.58C106.772 14.84 106.522 14.26 106.022 13.84C105.542 13.42 104.872 13.21 104.012 13.21H100.292V17.86H104.072ZM118.788 0.939999V22H113.658V0.939999H118.788Z" fill="#F5F5F7"/>
</svg>
